<svg role="img" viewBox="0 0 24 24" xmlns="http://www.w3.org/2000/svg">
  <title>Cloudflare</title>
  <path d="M18.32 3.142a7.06 7.06 0 0 0-5.432 0l-2.28 1.728a.5.5 0 0 0 0 .786l2.28 1.728a7.06 7.06 0 0 0 5.432 0l2.28-1.728a.5.5 0 0 0 0-.786zm-6.64 0a7.06 7.06 0 0 0-5.432 0l-2.28 1.728a.5.5 0 0 0 0 .786l2.28 1.728a7.06 7.06 0 0 0 5.432 0l2.28-1.728a.5.5 0 0 0 0-.786zm0 8.572a7.06 7.06 0 0 0-5.432 0l-2.28 1.728a.5.5 0 0 0 0 .786l2.28 1.728a7.06 7.06 0 0 0 5.432 0l2.28-1.728a.5.5 0 0 0 0-.786zm0 8.571a7.06 7.06 0 0 0-5.432 0l-2.28 1.728a.5.5 0 0 0 0 .786l2.28 1.728a7.06 7.06 0 0 0 5.432 0l2.28-1.728a.5.5 0 0 0 0-.786z" fill="currentColor"/>
</svg>