<svg role="img" viewBox="0 0 24 24" xmlns="http://www.w3.org/2000/svg">
  <path d="M23.42 8.144c-.527-2.34-2.11-4.44-4.3-5.63-2.48-1.34-5.44-1.4-8.06-.15-2.43.9-4.5 2.8-5.63 5.1-1.07 2.3-1.2 5.02-.38 7.48.02.06.04.12.06.18l.12.3.13.28.18.34.1.15c.4.6 1.46 1.52 2 1.92l.2.15.2.14.2.13.2.12.2.1.2.1.2.08.2.08.2.07.2.06.2.06.2.04.2.04.2.03.2.02.2.02.2.02.2.02.2.01h.18c.06 0 .12 0 .18-.01l.2-.02.2-.02.2-.02.2-.02.2-.03.2-.04.2-.04.2-.06.2-.06.2-.07.2-.08.2-.08.2-.1.2-.1.2-.12.2-.13.2-.14.2-.15c.54-.4 1.6-1.33 2-1.92l.1-.15.18-.34.13-.28.12-.3c.02-.06.04-.12.06-.18.82-2.46.65-5.18-.38-7.48zm-10.2 8.426H5.86s-.08-.22-.08-.34c0-.12.08-.33.08-.33h7.36v.67zm.02-1.42h-7.4s-.08-.2-.08-.3c0-.1.08-.3.08-.3h7.4v.6zm.02-1.3h-7.4s-.08-.22-.08-.34c0-.12.08-.33.08-.33h7.4v.67zm.02-1.28h-7.4s-.08-.2-.08-.3c0-.1.08-.3.08-.3h7.4v.6zm.02-1.3h-7.4s-.08-.22-.08-.34c0-.12.08-.33.08-.33h7.4v.67zm3.4-1.28H9.26V9.34h7.38v.67zm.02-1.3H9.26V8.06h7.4v.6zm0-1.28H9.26V6.78h7.4v.6zm0-1.3H9.26V5.5h7.4v.6zm-3.4-1.28H5.86s-.08-.22-.08-.34c0-.12.08-.33.08-.33h7.36v.67z" fill="currentColor"/>
</svg>