<svg role="img" viewBox="0 0 100 100" xmlns="http://www.w3.org/2000/svg">
  <path d="M98.75 50.3125C98.75 49.2188 97.8438 48.3125 96.75 48.3125H81.25C80.1562 48.3125 79.25 49.2188 79.25 50.3125C79.25 60.0312 71.2812 68 61.5625 68C51.8438 68 43.875 60.0312 43.875 50.3125C43.875 40.5938 51.8438 32.625 61.5625 32.625C65.5 32.625 69.125 34.1562 71.9062 36.625C72.6562 37.25 73.75 37.125 74.375 36.375L79.5312 30.2188C80.1562 29.4688 80.0312 28.375 79.2812 27.75C75.1562 24.25 70.0938 22.25 64.5312 21.3438C63.5625 21.2188 62.75 21.9688 62.75 22.9375V38.4375C62.75 39.5312 61.8438 40.4375 60.75 40.4375C53.5 40.4375 47.625 46.3125 47.625 50.3125C47.625 57.5625 53.5 63.4375 60.75 63.4375C68 63.4375 73.875 57.5625 73.875 50.3125C73.875 49.2188 72.9688 48.3125 71.875 48.3125H56.375C55.2812 48.3125 54.375 49.2188 54.375 50.3125C54.375 54.0625 57.25 57.0625 60.75 57.0625C64.25 57.0625 67.125 54.0625 67.125 50.3125C67.125 49.2188 66.2188 48.3125 65.125 48.3125H64.5312C63.4375 48.3125 62.5312 47.4062 62.5312 46.3125V2.0625C62.5312 0.96875 63.4375 0.0625 64.5312 0.0625C83.5 0.0625 98.75 15.3125 98.75 34.3125C98.75 39.625 97.5938 44.6875 95.5312 49.0625C95.2188 49.8125 95.5312 50.6875 96.2812 51.125L97.9062 52.125C98.125 52.25 98.4062 52.3125 98.6875 52.3125C99.2188 52.3125 99.75 51.9062 99.9062 51.375C100.125 50.5 99.6875 49.625 98.9375 49.3125L98.75 50.3125Z" fill="currentColor"/>
</svg>