<svg role="img" viewBox="0 0 24 24" xmlns="http://www.w3.org/2000/svg">
  <path d="M12 18a6 6 0 1 0 0-12 6 6 0 0 0 0 12zm0 2a8 8 0 1 1 0-16 8 8 0 0 1 0 16zm-4.293-9.707a1 1 0 0 1 1.414-1.414 2.5 2.5 0 0 0 0 3.535 1 1 0 0 1-1.414-1.414 4.5 4.5 0 0 1 0-6.364 1 1 0 0 1 1.414-1.414 6.5 6.5 0 0 0 0 9.192 1 1 0 1 1-1.414-1.414 4.5 4.5 0 0 1 0-6.364zm8.586 0a1 1 0 0 1 1.414-1.414 6.5 6.5 0 0 0 0-9.192 1 1 0 1 1-1.414 1.414 4.5 4.5 0 0 1 0 6.364 1 1 0 0 1 1.414 1.414 2.5 2.5 0 0 0 0-3.535 1 1 0 0 1-1.414 1.414 4.5 4.5 0 0 1 0-6.364z" fill="currentColor"/>
</svg>